<svg xmlns="http://www.w3.org/2000/svg" xmlns:xlink="http://www.w3.org/1999/xlink" width="500" zoomAndPan="magnify" viewBox="0 0 375 374.999991" height="500" preserveAspectRatio="xMidYMid meet" version="1.0"><defs><clipPath id="37cd4ca42c"><path d="M 42.65625 0 L 332.15625 0 L 332.15625 375 L 42.65625 375 Z M 42.65625 0 " clip-rule="nonzero"/></clipPath></defs><g clip-path="url(#37cd4ca42c)"><path fill="#ffffff" d="M 332.164062 345.757812 L 332.164062 29.28125 C 332.164062 21.226562 328.875 13.902344 323.574219 8.597656 C 318.273438 3.289062 310.957031 0 302.902344 0 L 71.941406 0 C 63.890625 0 56.570312 3.289062 51.269531 8.597656 C 45.972656 13.902344 42.679688 21.226562 42.679688 29.28125 L 42.679688 345.757812 C 42.679688 353.816406 45.972656 361.140625 51.269531 366.445312 C 56.570312 371.746094 63.890625 375.042969 71.941406 375.042969 L 302.902344 375.042969 C 310.957031 375.042969 318.273438 371.746094 323.574219 366.445312 C 328.875 361.140625 332.164062 353.816406 332.164062 345.757812 Z M 85.472656 147.71875 L 114.859375 147.71875 C 119.90625 147.71875 124.496094 149.515625 127.816406 152.402344 C 131.140625 155.289062 133.199219 159.28125 133.199219 163.671875 L 133.199219 187.191406 C 133.199219 191.585938 131.140625 195.570312 127.816406 198.460938 C 124.496094 201.351562 119.90625 203.144531 114.859375 203.144531 L 85.472656 203.144531 C 80.417969 203.144531 75.832031 201.347656 72.511719 198.460938 C 69.191406 195.570312 67.125 191.585938 67.125 187.191406 L 67.125 163.671875 C 67.125 159.28125 69.191406 155.289062 72.511719 152.402344 C 75.832031 149.515625 80.417969 147.71875 85.472656 147.71875 Z M 170.238281 147.71875 L 199.628906 147.71875 C 204.679688 147.71875 209.261719 149.515625 212.582031 152.402344 C 215.90625 155.289062 217.96875 159.28125 217.96875 163.671875 L 217.96875 187.191406 C 217.96875 191.585938 215.90625 195.570312 212.582031 198.460938 C 209.261719 201.347656 204.679688 203.144531 199.628906 203.144531 L 170.238281 203.144531 C 165.1875 203.144531 160.601562 201.347656 157.28125 198.460938 C 153.960938 195.570312 151.898438 191.585938 151.898438 187.191406 L 151.898438 163.671875 C 151.898438 159.28125 153.960938 155.289062 157.28125 152.402344 C 160.601562 149.515625 165.1875 147.71875 170.238281 147.71875 Z M 255.007812 147.71875 L 284.394531 147.71875 C 289.445312 147.71875 294.03125 149.515625 297.351562 152.402344 C 300.675781 155.289062 302.734375 159.28125 302.734375 163.671875 L 302.734375 187.191406 C 302.734375 191.585938 300.675781 195.570312 297.351562 198.460938 C 294.03125 201.347656 289.445312 203.144531 284.394531 203.144531 L 255.007812 203.144531 C 249.953125 203.144531 245.367188 201.351562 242.046875 198.460938 C 238.726562 195.570312 236.664062 191.585938 236.664062 187.191406 L 236.664062 163.671875 C 236.664062 159.28125 238.726562 155.289062 242.046875 152.402344 C 245.367188 149.515625 249.953125 147.71875 255.007812 147.71875 Z M 85.472656 220.582031 L 114.859375 220.582031 C 119.90625 220.582031 124.496094 222.375 127.816406 225.261719 C 131.140625 228.152344 133.199219 232.136719 133.199219 236.527344 L 133.199219 260.050781 C 133.199219 264.441406 131.140625 268.433594 127.816406 271.320312 C 124.496094 274.207031 119.90625 276 114.859375 276 L 85.472656 276 C 80.417969 276 75.832031 274.207031 72.511719 271.320312 C 69.191406 268.433594 67.125 264.441406 67.125 260.050781 L 67.125 236.527344 C 67.125 232.136719 69.191406 228.152344 72.511719 225.261719 C 75.832031 222.375 80.417969 220.582031 85.472656 220.582031 Z M 170.238281 220.582031 L 199.628906 220.582031 C 204.679688 220.582031 209.261719 222.375 212.582031 225.261719 C 215.90625 228.152344 217.96875 232.136719 217.96875 236.527344 L 217.96875 260.050781 C 217.96875 264.441406 215.90625 268.433594 212.582031 271.320312 C 209.261719 274.207031 204.679688 276 199.628906 276 L 170.238281 276 C 165.1875 276 160.601562 274.207031 157.28125 271.320312 C 153.960938 268.433594 151.898438 264.441406 151.898438 260.050781 L 151.898438 236.527344 C 151.898438 232.136719 153.960938 228.152344 157.28125 225.261719 C 160.601562 222.375 165.1875 220.582031 170.238281 220.582031 Z M 255.007812 220.582031 L 284.394531 220.582031 C 289.445312 220.582031 294.03125 222.375 297.351562 225.261719 C 300.675781 228.152344 302.734375 232.136719 302.734375 236.527344 L 302.734375 332.914062 C 302.734375 337.304688 300.675781 341.292969 297.351562 344.179688 C 294.03125 347.066406 289.445312 348.859375 284.394531 348.859375 L 255.007812 348.859375 C 249.953125 348.859375 245.367188 347.066406 242.046875 344.179688 C 238.726562 341.292969 236.664062 337.304688 236.664062 332.914062 L 236.664062 236.527344 C 236.664062 232.136719 238.726562 228.152344 242.046875 225.261719 C 245.367188 222.375 249.953125 220.582031 255.007812 220.582031 Z M 85.472656 293.441406 L 114.859375 293.441406 C 119.90625 293.441406 124.496094 295.234375 127.816406 298.125 C 131.140625 301.007812 133.199219 305 133.199219 309.390625 L 133.199219 332.914062 C 133.199219 337.304688 131.140625 341.292969 127.816406 344.179688 C 124.496094 347.066406 119.90625 348.859375 114.859375 348.859375 L 85.472656 348.859375 C 80.417969 348.859375 75.832031 347.066406 72.511719 344.179688 C 69.191406 341.292969 67.125 337.304688 67.125 332.914062 L 67.125 309.390625 C 67.125 305 69.191406 301.007812 72.511719 298.125 C 75.832031 295.234375 80.417969 293.441406 85.472656 293.441406 Z M 170.238281 293.441406 L 199.628906 293.441406 C 204.679688 293.441406 209.261719 295.234375 212.582031 298.125 C 215.90625 301.007812 217.96875 305 217.96875 309.390625 L 217.96875 332.914062 C 217.96875 337.304688 215.90625 341.292969 212.582031 344.179688 C 209.261719 347.066406 204.679688 348.859375 199.628906 348.859375 L 170.238281 348.859375 C 165.1875 348.859375 160.601562 347.066406 157.28125 344.179688 C 153.960938 341.292969 151.898438 337.304688 151.898438 332.914062 L 151.898438 309.390625 C 151.898438 305 153.960938 301.007812 157.28125 298.125 C 160.601562 295.234375 165.1875 293.441406 170.238281 293.441406 Z M 303.425781 105.519531 C 303.425781 109.171875 301.828125 112.492188 299.25 114.910156 C 296.671875 117.324219 293.121094 118.820312 289.222656 118.820312 L 85.625 118.820312 C 81.726562 118.820312 78.175781 117.324219 75.601562 114.910156 C 73.023438 112.492188 71.425781 109.171875 71.425781 105.519531 L 71.425781 47.027344 C 71.425781 43.378906 73.023438 40.050781 75.601562 37.636719 C 78.175781 35.222656 81.726562 33.722656 85.625 33.722656 L 289.222656 33.722656 C 293.121094 33.722656 296.671875 35.222656 299.25 37.636719 C 301.828125 40.050781 303.425781 43.378906 303.425781 47.027344 L 303.425781 105.519531 " fill-opacity="1" fill-rule="evenodd"/></g></svg>