<svg xmlns="http://www.w3.org/2000/svg" xmlns:xlink="http://www.w3.org/1999/xlink" width="500" zoomAndPan="magnify" viewBox="0 0 375 374.999991" height="500" preserveAspectRatio="xMidYMid meet" version="1.0"><path fill="#ffffff" d="M 151.042969 288.019531 L 175.347656 288.019531 C 178.125 288.019531 180.554688 285.589844 180.554688 282.8125 C 180.554688 280.035156 178.125 277.605469 175.347656 277.605469 L 151.042969 277.605469 C 148.265625 277.605469 145.832031 280.035156 145.832031 282.8125 C 145.832031 285.589844 148.265625 288.019531 151.042969 288.019531 Z M 151.042969 288.019531 " fill-opacity="1" fill-rule="nonzero"/><path fill="#ffffff" d="M 199.652344 288.019531 L 223.957031 288.019531 C 226.734375 288.019531 229.167969 285.589844 229.167969 282.8125 C 229.167969 280.035156 226.734375 277.605469 223.957031 277.605469 L 199.652344 277.605469 C 196.875 277.605469 194.445312 280.035156 194.445312 282.8125 C 194.445312 285.589844 196.875 288.019531 199.652344 288.019531 Z M 199.652344 288.019531 " fill-opacity="1" fill-rule="nonzero"/><path fill="#ffffff" d="M 92.015625 176.910156 C 94.792969 176.910156 97.222656 174.480469 97.222656 171.703125 L 97.222656 147.394531 C 97.222656 144.617188 94.792969 142.1875 92.015625 142.1875 C 89.234375 142.1875 86.804688 144.617188 86.804688 147.394531 L 86.804688 171.703125 C 86.804688 174.480469 89.234375 176.910156 92.015625 176.910156 Z M 92.015625 176.910156 " fill-opacity="1" fill-rule="nonzero"/><path fill="#ffffff" d="M 272.570312 277.605469 L 248.265625 277.605469 C 245.484375 277.605469 243.054688 280.035156 243.054688 282.8125 C 243.054688 285.589844 245.484375 288.019531 248.265625 288.019531 L 272.570312 288.019531 C 275.347656 288.019531 277.777344 285.589844 277.777344 282.8125 C 277.777344 280.035156 275.347656 277.605469 272.570312 277.605469 Z M 272.570312 277.605469 " fill-opacity="1" fill-rule="nonzero"/><path fill="#ffffff" d="M 86.804688 74.480469 C 86.804688 77.257812 89.234375 79.6875 92.015625 79.6875 C 94.792969 79.6875 97.222656 77.257812 97.222656 74.480469 L 97.222656 50.171875 C 97.222656 47.394531 94.792969 44.964844 92.015625 44.964844 C 89.234375 44.964844 86.804688 47.394531 86.804688 50.171875 Z M 86.804688 74.480469 " fill-opacity="1" fill-rule="nonzero"/><path fill="#ffffff" d="M 92.015625 274.132812 C 94.792969 274.132812 97.222656 271.703125 97.222656 268.921875 L 97.222656 244.617188 C 97.222656 241.839844 94.792969 239.410156 92.015625 239.410156 C 89.234375 239.410156 86.804688 241.839844 86.804688 244.617188 L 86.804688 268.921875 C 86.804688 271.703125 89.234375 274.132812 92.015625 274.132812 Z M 92.015625 274.132812 " fill-opacity="1" fill-rule="nonzero"/><path fill="#ffffff" d="M 321.179688 277.605469 L 296.875 277.605469 C 294.097656 277.605469 291.667969 280.035156 291.667969 282.8125 C 291.667969 285.589844 294.097656 288.019531 296.875 288.019531 L 321.179688 288.019531 C 323.957031 288.019531 326.390625 285.589844 326.390625 282.8125 C 326.390625 280.035156 323.957031 277.605469 321.179688 277.605469 Z M 321.179688 277.605469 " fill-opacity="1" fill-rule="nonzero"/><path fill="#ffffff" d="M 102.429688 288.019531 L 126.734375 288.019531 C 129.515625 288.019531 131.945312 285.589844 131.945312 282.8125 C 131.945312 280.035156 129.515625 277.605469 126.734375 277.605469 L 102.429688 277.605469 C 99.652344 277.605469 97.222656 280.035156 97.222656 282.8125 C 97.222656 285.589844 99.652344 288.019531 102.429688 288.019531 Z M 102.429688 288.019531 " fill-opacity="1" fill-rule="nonzero"/><path fill="#ffffff" d="M 92.015625 225.519531 C 94.792969 225.519531 97.222656 223.089844 97.222656 220.3125 L 97.222656 196.007812 C 97.222656 193.230469 94.792969 190.796875 92.015625 190.796875 C 89.234375 190.796875 86.804688 193.230469 86.804688 196.007812 L 86.804688 220.3125 C 86.804688 223.089844 89.234375 225.519531 92.015625 225.519531 Z M 92.015625 225.519531 " fill-opacity="1" fill-rule="nonzero"/><path fill="#ffffff" d="M 375 282.8125 L 375 5.035156 C 375 4.339844 375 3.644531 374.652344 3.296875 C 373.957031 1.910156 373.265625 0.867188 371.875 0.519531 C 371.179688 0.171875 370.484375 0.171875 370.140625 0.171875 L 92.359375 0.171875 C 91.667969 0.171875 90.972656 0.171875 90.625 0.519531 C 89.929688 0.867188 89.234375 1.214844 88.890625 1.5625 L 2.082031 88.367188 C 1.734375 88.714844 1.042969 89.410156 1.042969 90.105469 C 0 90.453125 0 91.144531 0 91.839844 L 0 369.617188 C 0 372.394531 2.429688 374.828125 5.207031 374.828125 L 282.984375 374.828125 C 283.679688 374.828125 284.375 374.828125 284.722656 374.480469 C 285.417969 374.132812 286.109375 373.785156 286.457031 373.4375 L 373.265625 286.632812 C 373.609375 286.285156 374.304688 285.589844 374.304688 284.894531 C 375 284.203125 375 283.507812 375 282.8125 Z M 92.015625 31.078125 C 94.792969 31.078125 97.222656 28.644531 97.222656 25.867188 L 97.222656 10.242188 L 357.292969 10.242188 L 280.902344 86.632812 L 17.707031 86.632812 L 86.804688 17.535156 L 86.804688 25.867188 C 86.804688 28.644531 89.234375 31.078125 92.015625 31.078125 Z M 27.082031 347.742188 C 25 345.660156 21.875 345.660156 19.792969 347.742188 L 10.765625 356.769531 L 10.765625 97.046875 L 87.5 97.046875 C 86.804688 97.742188 86.804688 98.089844 86.804688 98.785156 L 86.804688 123.089844 C 86.804688 125.867188 89.234375 128.296875 92.015625 128.296875 C 94.792969 128.296875 97.222656 125.867188 97.222656 123.089844 L 97.222656 98.785156 C 97.222656 98.089844 97.222656 97.742188 96.875 97.046875 L 277.777344 97.046875 L 277.777344 364.410156 L 17.707031 364.410156 L 26.734375 355.382812 C 28.820312 353.296875 28.820312 349.828125 27.082031 347.742188 Z M 288.195312 93.921875 L 364.582031 17.535156 L 364.582031 277.605469 L 345.484375 277.605469 C 342.707031 277.605469 340.277344 280.035156 340.277344 282.8125 C 340.277344 285.589844 342.707031 288.019531 345.484375 288.019531 L 357.292969 288.019531 L 288.195312 357.117188 Z M 288.195312 93.921875 " fill-opacity="1" fill-rule="nonzero"/><path fill="#ffffff" d="M 40.625 339.410156 C 42.015625 339.410156 43.402344 339.0625 44.445312 338.019531 L 61.457031 320.660156 C 63.542969 318.578125 63.542969 315.453125 61.457031 313.367188 C 59.375 311.285156 56.25 311.285156 54.167969 313.367188 L 37.152344 330.730469 C 35.070312 332.8125 35.070312 335.9375 37.152344 338.019531 C 37.847656 339.0625 39.234375 339.410156 40.625 339.410156 Z M 40.625 339.410156 " fill-opacity="1" fill-rule="nonzero"/><path fill="#ffffff" d="M 75 305.382812 C 76.390625 305.382812 77.777344 305.035156 78.820312 303.992188 L 95.832031 286.632812 C 96.875 285.589844 97.222656 284.203125 97.222656 282.8125 C 97.222656 281.421875 96.875 280.035156 95.832031 278.992188 C 93.75 276.910156 90.625 276.910156 88.542969 278.992188 L 71.527344 296.355469 C 69.445312 298.4375 69.445312 301.5625 71.527344 303.644531 C 72.222656 304.6875 73.609375 305.382812 75 305.382812 Z M 75 305.382812 " fill-opacity="1" fill-rule="nonzero"/></svg>