<svg xmlns="http://www.w3.org/2000/svg" xmlns:xlink="http://www.w3.org/1999/xlink" width="500" zoomAndPan="magnify" viewBox="0 0 375 374.999991" height="500" preserveAspectRatio="xMidYMid meet" version="1.0"><defs><clipPath id="dbc30864de"><path d="M 0 5.625 L 375 5.625 L 375 369.375 L 0 369.375 Z M 0 5.625 " clip-rule="nonzero"/></clipPath><clipPath id="22c0350423"><path d="M 250 107.664062 L 292.996094 107.664062 L 292.996094 165.414062 L 250 165.414062 Z M 250 107.664062 " clip-rule="nonzero"/></clipPath></defs><g clip-path="url(#dbc30864de)"><path fill="#ffffff" d="M 181.988281 5.625 C 81.609375 5.625 0.113281 87.117188 0.113281 187.5 C 0.113281 287.882812 81.609375 369.375 181.988281 369.375 C 277.089844 369.375 355.195312 296.21875 363.152344 203.164062 C 364 202.910156 364.824219 202.589844 365.621094 202.207031 C 366.417969 201.820312 367.179688 201.375 367.90625 200.867188 C 368.632812 200.359375 369.3125 199.796875 369.945312 199.183594 C 370.582031 198.566406 371.164062 197.902344 371.691406 197.191406 C 372.222656 196.480469 372.691406 195.734375 373.097656 194.949219 C 373.507812 194.164062 373.851562 193.351562 374.128906 192.511719 C 374.40625 191.667969 374.617188 190.8125 374.757812 189.9375 C 374.898438 189.066406 374.96875 188.183594 374.964844 187.300781 C 374.964844 186.414062 374.894531 185.535156 374.75 184.660156 C 374.609375 183.789062 374.398438 182.929688 374.117188 182.089844 C 373.839844 181.25 373.492188 180.4375 373.082031 179.652344 C 372.671875 178.871094 372.203125 178.121094 371.671875 177.414062 C 371.144531 176.703125 370.558594 176.042969 369.921875 175.425781 C 369.285156 174.8125 368.605469 174.25 367.878906 173.746094 C 367.152344 173.242188 366.390625 172.796875 365.589844 172.414062 C 364.792969 172.03125 363.96875 171.710938 363.121094 171.460938 C 354.984375 78.585938 276.960938 5.625 181.988281 5.625 Z M 181.988281 16.648438 C 271.207031 16.648438 344.3125 84.890625 352.109375 172.0625 C 351.363281 172.378906 350.644531 172.746094 349.953125 173.164062 C 349.261719 173.585938 348.601562 174.054688 347.980469 174.570312 C 347.355469 175.085938 346.773438 175.648438 346.234375 176.25 C 345.691406 176.851562 345.199219 177.488281 344.75 178.164062 C 344.304688 178.839844 343.90625 179.542969 343.5625 180.273438 C 343.21875 181.007812 342.929688 181.761719 342.699219 182.539062 C 342.464844 183.3125 342.289062 184.101562 342.171875 184.902344 C 342.054688 185.703125 341.996094 186.507812 341.996094 187.316406 C 342 188.125 342.058594 188.929688 342.175781 189.730469 C 342.296875 190.53125 342.472656 191.320312 342.707031 192.09375 C 342.941406 192.871094 343.234375 193.625 343.578125 194.355469 C 343.925781 195.085938 344.320312 195.789062 344.769531 196.464844 C 345.21875 197.136719 345.714844 197.773438 346.257812 198.375 C 346.796875 198.976562 347.382812 199.535156 348.007812 200.050781 C 348.628906 200.566406 349.289062 201.03125 349.980469 201.453125 C 350.675781 201.871094 351.394531 202.234375 352.140625 202.546875 C 344.527344 289.90625 271.335938 358.351562 181.988281 358.351562 C 87.566406 358.351562 11.136719 281.921875 11.136719 187.5 C 11.136719 93.078125 87.566406 16.648438 181.988281 16.648438 Z M 182.128906 170.78125 C 181.585938 170.78125 181.046875 170.808594 180.507812 170.863281 C 179.96875 170.914062 179.433594 170.996094 178.902344 171.101562 C 178.371094 171.207031 177.847656 171.335938 177.328125 171.496094 C 176.8125 171.652344 176.300781 171.835938 175.800781 172.042969 C 175.300781 172.25 174.8125 172.480469 174.335938 172.734375 C 173.855469 172.992188 173.394531 173.269531 172.941406 173.570312 C 172.492188 173.871094 172.058594 174.191406 171.640625 174.535156 C 171.222656 174.878906 170.820312 175.242188 170.4375 175.625 C 170.054688 176.007812 169.691406 176.410156 169.347656 176.828125 C 169.003906 177.246094 168.683594 177.679688 168.382812 178.132812 C 168.082031 178.582031 167.800781 179.046875 167.546875 179.523438 C 167.292969 180 167.058594 180.488281 166.851562 180.988281 C 166.644531 181.488281 166.464844 182 166.304688 182.515625 C 166.148438 183.035156 166.019531 183.558594 165.914062 184.089844 C 165.804688 184.621094 165.726562 185.15625 165.675781 185.695312 C 165.621094 186.234375 165.59375 186.777344 165.59375 187.316406 C 165.59375 187.859375 165.621094 188.398438 165.675781 188.9375 C 165.726562 189.476562 165.804688 190.011719 165.914062 190.542969 C 166.019531 191.074219 166.148438 191.597656 166.304688 192.117188 C 166.464844 192.632812 166.644531 193.144531 166.851562 193.644531 C 167.058594 194.144531 167.292969 194.632812 167.546875 195.109375 C 167.800781 195.589844 168.082031 196.050781 168.382812 196.503906 C 168.683594 196.953125 169.003906 197.386719 169.347656 197.804688 C 169.691406 198.226562 170.054688 198.625 170.4375 199.007812 C 170.820312 199.390625 171.222656 199.753906 171.640625 200.097656 C 172.058594 200.441406 172.492188 200.765625 172.941406 201.066406 C 173.394531 201.367188 173.855469 201.644531 174.335938 201.898438 C 174.8125 202.152344 175.300781 202.386719 175.800781 202.59375 C 176.300781 202.800781 176.8125 202.980469 177.328125 203.140625 C 177.847656 203.296875 178.371094 203.425781 178.902344 203.535156 C 179.433594 203.640625 179.96875 203.71875 180.507812 203.769531 C 181.046875 203.824219 181.585938 203.851562 182.128906 203.851562 C 183.183594 203.851562 184.226562 203.75 185.261719 203.546875 C 186.296875 203.347656 187.304688 203.050781 188.285156 202.65625 C 189.261719 202.261719 190.195312 201.78125 191.082031 201.207031 C 191.964844 200.636719 192.789062 199.984375 193.550781 199.253906 C 194.3125 198.523438 195 197.730469 195.609375 196.871094 C 196.21875 196.007812 196.738281 195.097656 197.175781 194.136719 C 197.609375 193.175781 197.949219 192.183594 198.195312 191.15625 C 198.4375 190.132812 198.585938 189.09375 198.628906 188.039062 C 198.914062 190.808594 201.191406 193.011719 204.035156 193.011719 C 207.066406 193.011719 209.546875 190.53125 209.546875 187.5 C 209.546875 184.46875 207.066406 181.988281 204.035156 181.988281 C 201.246094 181.988281 199.019531 184.117188 198.664062 186.8125 C 198.628906 185.746094 198.496094 184.695312 198.261719 183.65625 C 198.023438 182.617188 197.691406 181.613281 197.261719 180.640625 C 196.832031 179.664062 196.3125 178.742188 195.703125 177.867188 C 195.09375 176.992188 194.410156 176.1875 193.644531 175.445312 C 192.878906 174.703125 192.050781 174.042969 191.160156 173.460938 C 190.265625 172.882812 189.328125 172.390625 188.339844 171.992188 C 187.355469 171.59375 186.339844 171.289062 185.292969 171.085938 C 184.25 170.882812 183.191406 170.78125 182.128906 170.78125 Z M 226.078125 181.988281 C 223.046875 181.988281 220.566406 184.46875 220.566406 187.5 C 220.566406 190.53125 223.046875 193.011719 226.078125 193.011719 C 229.109375 193.011719 231.589844 190.53125 231.589844 187.5 C 231.589844 184.46875 229.109375 181.988281 226.078125 181.988281 Z M 248.125 181.988281 C 245.09375 181.988281 242.613281 184.46875 242.613281 187.5 C 242.613281 190.53125 245.09375 193.011719 248.125 193.011719 C 251.15625 193.011719 253.636719 190.53125 253.636719 187.5 C 253.636719 184.46875 251.15625 181.988281 248.125 181.988281 Z M 270.171875 181.988281 C 267.140625 181.988281 264.660156 184.46875 264.660156 187.5 C 264.660156 190.53125 267.140625 193.011719 270.171875 193.011719 C 273.203125 193.011719 275.683594 190.53125 275.683594 187.5 C 275.683594 184.46875 273.203125 181.988281 270.171875 181.988281 Z M 292.214844 181.988281 C 289.183594 181.988281 286.703125 184.46875 286.703125 187.5 C 286.703125 190.53125 289.183594 193.011719 292.214844 193.011719 C 295.246094 193.011719 297.726562 190.53125 297.726562 187.5 C 297.726562 184.46875 295.246094 181.988281 292.214844 181.988281 Z M 314.261719 181.988281 C 311.230469 181.988281 308.75 184.46875 308.75 187.5 C 308.75 190.53125 311.230469 193.011719 314.261719 193.011719 C 317.292969 193.011719 319.773438 190.53125 319.773438 187.5 C 319.773438 184.46875 317.292969 181.988281 314.261719 181.988281 Z M 336.308594 181.988281 C 333.214844 181.988281 330.796875 184.46875 330.796875 187.5 C 330.796875 190.53125 333.214844 193.011719 336.308594 193.011719 C 339.339844 193.011719 341.816406 190.53125 341.816406 187.5 C 341.816406 184.46875 339.339844 181.988281 336.308594 181.988281 Z M 336.308594 181.988281 " fill-opacity="1" fill-rule="nonzero"/></g><g clip-path="url(#22c0350423)"><path fill="#ffffff" d="M 271.527344 141.996094 L 257.933594 141.996094 L 257.933594 165.304688 L 250.265625 165.304688 L 250.265625 107.679688 L 269.421875 107.679688 C 275.9375 107.679688 280.957031 109.15625 284.464844 112.113281 C 287.976562 115.070312 289.730469 119.367188 289.730469 125.015625 C 289.730469 128.605469 288.757812 131.730469 286.808594 134.398438 C 284.859375 137.0625 282.152344 139.054688 278.679688 140.371094 L 292.273438 164.828125 L 292.273438 165.304688 L 284.082031 165.304688 Z M 257.933594 135.777344 L 269.660156 135.777344 C 273.449219 135.777344 276.460938 134.800781 278.699219 132.84375 C 280.941406 130.886719 282.0625 128.273438 282.0625 124.996094 C 282.0625 121.429688 280.996094 118.691406 278.859375 116.789062 C 276.726562 114.886719 273.648438 113.921875 269.621094 113.890625 L 257.933594 113.890625 Z M 257.933594 135.777344 " fill-opacity="1" fill-rule="nonzero"/></g></svg>