<svg xmlns="http://www.w3.org/2000/svg" xmlns:xlink="http://www.w3.org/1999/xlink" width="500" zoomAndPan="magnify" viewBox="0 0 375 374.999991" height="500" preserveAspectRatio="xMidYMid meet" version="1.0"><path fill="#ffffff" d="M 302.851562 100.472656 C 302.257812 102.554688 301.828125 104.703125 301.042969 106.699219 C 297.90625 114.742188 289.859375 120.273438 281.015625 120.332031 C 267.273438 120.417969 253.519531 120.410156 239.777344 120.316406 C 237.734375 120.296875 237.089844 120.894531 236.71875 122.898438 C 233.339844 140.839844 230.730469 158.875 229.464844 177.097656 C 228.542969 190.4375 228.257812 203.757812 229.601562 217.054688 C 230.800781 228.980469 232.773438 240.761719 238.761719 251.410156 C 242.628906 258.296875 247.601562 264.050781 255.746094 265.886719 C 264.335938 267.824219 271.796875 265.042969 278.605469 259.90625 C 284.964844 255.105469 287.980469 248.773438 287.460938 240.792969 C 287.402344 239.90625 287.222656 238.992188 287.375 238.140625 C 287.601562 236.882812 287.789062 234.867188 288.515625 234.609375 C 289.710938 234.175781 291.597656 234.453125 292.710938 235.167969 C 297.613281 238.347656 300.042969 243.371094 301.265625 248.773438 C 304.550781 263.222656 300.792969 276.140625 290.996094 286.953125 C 277.734375 301.566406 260.835938 308.273438 241.226562 306.480469 C 222.492188 304.765625 209.800781 294.191406 202.425781 277.046875 C 199.027344 269.167969 197.769531 260.8125 196.617188 252.402344 C 193.101562 226.828125 193.359375 201.121094 194.339844 175.4375 C 194.96875 158.804688 196.425781 142.210938 197.503906 125.597656 C 197.605469 123.933594 197.660156 122.253906 197.746094 120.46875 C 184.46875 120.46875 171.394531 120.46875 158.1875 120.46875 C 158.109375 120.847656 157.960938 121.230469 157.96875 121.597656 C 158.640625 149.484375 159.304688 177.367188 160.003906 205.257812 C 160.367188 219.476562 161.03125 233.703125 161.097656 247.929688 C 161.167969 261.90625 158.539062 275.382812 151.542969 287.730469 C 148.59375 292.933594 144.847656 297.476562 139.816406 300.765625 C 132.257812 305.703125 124.261719 306.359375 116.152344 302.265625 C 107.140625 297.714844 100.617188 290.933594 98.875 280.613281 C 97.714844 273.691406 98.722656 266.808594 101.265625 260.378906 C 104.824219 251.394531 108.621094 242.464844 112.929688 233.816406 C 117.714844 224.207031 120.339844 214.074219 121.882812 203.578125 C 125.054688 182.070312 125.320312 160.425781 124.734375 138.753906 C 124.582031 133.199219 123.777344 127.65625 123.324219 122.097656 C 123.203125 120.667969 122.554688 119.996094 121.109375 119.746094 C 114.265625 118.582031 107.605469 119.625 100.9375 121.03125 C 88.554688 123.640625 76.957031 128.519531 65.304688 133.257812 C 63.246094 134.09375 60.980469 134.695312 58.785156 134.835938 C 57.363281 134.921875 55.878906 133.957031 54.433594 133.464844 C 54.433594 132.335938 54.433594 131.199219 54.433594 130.070312 C 55.121094 128.640625 55.714844 127.140625 56.535156 125.785156 C 65.296875 111.242188 75.394531 97.757812 88.226562 86.519531 C 99.496094 76.644531 112.179688 71.40625 127.675781 71.554688 C 178.53125 72.035156 229.394531 71.734375 280.257812 71.742188 C 281.308594 71.742188 282.363281 71.769531 283.414062 71.835938 C 292.0625 72.335938 298.757812 77.507812 301.34375 85.71875 C 301.914062 87.546875 302.351562 89.40625 302.851562 91.25 C 302.851562 94.328125 302.851562 97.394531 302.851562 100.472656 Z M 187.5 0 C 83.945312 0 0 83.945312 0 187.5 C 0 291.054688 83.945312 375 187.5 375 C 291.054688 375 375 291.054688 375 187.5 C 375 83.945312 291.054688 0 187.5 0 " fill-opacity="1" fill-rule="nonzero"/></svg>