<svg xmlns="http://www.w3.org/2000/svg" xmlns:xlink="http://www.w3.org/1999/xlink" width="500" zoomAndPan="magnify" viewBox="0 0 375 374.999991" height="500" preserveAspectRatio="xMidYMid meet" version="1.0"><defs><clipPath id="70bc038f8e"><path d="M 269 4.21875 L 349 4.21875 L 349 141 L 269 141 Z M 269 4.21875 " clip-rule="nonzero"/></clipPath><clipPath id="be78131045"><path d="M 173 272 L 235 272 L 235 370.96875 L 173 370.96875 Z M 173 272 " clip-rule="nonzero"/></clipPath></defs><path fill="#ffffff" d="M 368.902344 236.167969 L 108.082031 29.105469 C 104.332031 26.125 99.207031 25.558594 94.894531 27.640625 C 90.582031 29.726562 87.84375 34.09375 87.84375 38.886719 L 87.84375 245.953125 C 87.84375 252.847656 93.429688 258.441406 100.324219 258.441406 L 361.144531 258.441406 C 366.457031 258.441406 371.183594 255.078125 372.929688 250.0625 C 374.679688 245.046875 373.0625 239.472656 368.902344 236.167969 Z M 112.804688 233.464844 L 112.804688 64.738281 L 325.335938 233.464844 Z M 112.804688 233.464844 " fill-opacity="1" fill-rule="nonzero"/><g clip-path="url(#70bc038f8e)"><path fill="#ffffff" d="M 281.125 140.023438 C 284.9375 140.023438 288.335938 138.257812 290.554688 135.503906 C 296.074219 138.386719 302.335938 140.023438 308.980469 140.023438 C 331.019531 140.023438 348.945312 122.085938 348.945312 100.039062 C 348.945312 77.992188 331.019531 60.054688 308.980469 60.054688 C 303.390625 60.054688 298.070312 61.210938 293.234375 63.292969 L 293.234375 16.300781 C 293.234375 9.609375 287.8125 4.1875 281.125 4.1875 C 274.4375 4.1875 269.015625 9.609375 269.015625 16.300781 L 269.015625 127.910156 C 269.015625 134.601562 274.4375 140.023438 281.125 140.023438 Z M 308.980469 84.285156 C 317.664062 84.285156 324.726562 91.351562 324.726562 100.039062 C 324.726562 108.726562 317.664062 115.792969 308.980469 115.792969 C 300.300781 115.792969 293.234375 108.726562 293.234375 100.039062 C 293.234375 91.351562 300.300781 84.285156 308.980469 84.285156 Z M 308.980469 84.285156 " fill-opacity="1" fill-rule="nonzero"/></g><path fill="#ffffff" d="M 36.082031 85.105469 L 25.476562 85.105469 C 18.789062 85.105469 13.367188 90.527344 13.367188 97.21875 C 13.367188 103.914062 18.789062 109.335938 25.476562 109.335938 L 36.082031 109.335938 C 42.359375 109.335938 47.464844 114.445312 47.464844 120.722656 L 47.464844 124.507812 C 43.871094 123.289062 40.027344 122.617188 36.027344 122.617188 C 16.367188 122.617188 0.375 138.621094 0.375 158.289062 C 0.375 177.960938 16.367188 193.964844 36.027344 193.964844 C 41.445312 193.964844 46.582031 192.742188 51.183594 190.574219 C 53.359375 192.667969 56.3125 193.964844 59.574219 193.964844 C 66.261719 193.964844 71.683594 188.539062 71.683594 181.847656 L 71.683594 120.722656 C 71.683594 101.082031 55.714844 85.105469 36.082031 85.105469 Z M 36.027344 169.730469 C 29.722656 169.730469 24.59375 164.597656 24.59375 158.289062 C 24.59375 151.980469 29.722656 146.847656 36.027344 146.847656 C 42.335938 146.847656 47.464844 151.980469 47.464844 158.289062 C 47.464844 164.597656 42.335938 169.730469 36.027344 169.730469 Z M 36.027344 169.730469 " fill-opacity="1" fill-rule="nonzero"/><g clip-path="url(#be78131045)"><path fill="#ffffff" d="M 222.582031 296.621094 C 229.273438 296.621094 234.695312 291.195312 234.695312 284.503906 C 234.695312 277.8125 229.273438 272.386719 222.582031 272.386719 C 195.4375 272.386719 173.351562 294.484375 173.351562 321.644531 C 173.351562 348.804688 195.4375 370.902344 222.582031 370.902344 C 229.273438 370.902344 234.695312 365.476562 234.695312 358.785156 C 234.695312 352.09375 229.273438 346.667969 222.582031 346.667969 C 208.792969 346.667969 197.570312 335.441406 197.570312 321.644531 C 197.570312 307.847656 208.792969 296.621094 222.582031 296.621094 Z M 222.582031 296.621094 " fill-opacity="1" fill-rule="nonzero"/></g></svg>