<svg xmlns="http://www.w3.org/2000/svg" xmlns:xlink="http://www.w3.org/1999/xlink" width="500" zoomAndPan="magnify" viewBox="0 0 375 374.999991" height="500" preserveAspectRatio="xMidYMid meet" version="1.0"><path fill="#ffffff" d="M 243.59375 115.613281 C 243.0625 116.144531 242.457031 116.613281 241.773438 117 C 237.679688 119.324219 232.476562 117.894531 230.152344 113.800781 C 226.382812 107.167969 221.707031 101.039062 216.257812 95.589844 C 212.929688 92.261719 212.929688 86.867188 216.257812 83.535156 C 219.585938 80.207031 224.984375 80.207031 228.3125 83.535156 C 234.84375 90.066406 240.449219 97.417969 244.972656 105.378906 C 246.914062 108.789062 246.242188 112.972656 243.59375 115.613281 " fill-opacity="1" fill-rule="nonzero"/><path fill="#ffffff" d="M 200.972656 76.574219 C 198.527344 79.019531 194.730469 79.816406 191.402344 78.296875 C 171.515625 69.210938 148.253906 68.160156 127.585938 75.417969 C 123.144531 76.980469 118.277344 74.640625 116.722656 70.203125 C 115.160156 65.757812 117.5 60.894531 121.9375 59.335938 C 147.089844 50.503906 174.277344 51.730469 198.484375 62.792969 C 202.769531 64.75 204.652344 69.804688 202.699219 74.085938 C 202.261719 75.039062 201.671875 75.875 200.972656 76.574219 " fill-opacity="1" fill-rule="nonzero"/><path fill="#ffffff" d="M 269.566406 155.921875 C 269.566406 186.277344 257.746094 214.816406 236.28125 236.28125 C 214.816406 257.746094 186.277344 269.566406 155.921875 269.566406 C 125.566406 269.566406 97.027344 257.746094 75.566406 236.28125 C 54.097656 214.816406 42.277344 186.277344 42.277344 155.921875 C 42.277344 125.566406 54.097656 97.027344 75.566406 75.566406 C 97.027344 54.097656 125.566406 42.277344 155.921875 42.277344 C 186.277344 42.277344 214.816406 54.097656 236.28125 75.566406 C 257.746094 97.027344 269.566406 125.566406 269.566406 155.921875 Z M 55.476562 55.476562 C 0 110.949219 0 200.894531 55.476562 256.371094 C 108.699219 309.59375 193.648438 311.746094 249.445312 262.839844 L 254.828125 268.222656 C 253.148438 274.539062 254.765625 281.554688 259.71875 286.503906 L 340.796875 367.582031 C 348.195312 374.980469 360.1875 374.980469 367.585938 367.582031 C 374.980469 360.1875 374.980469 348.195312 367.585938 340.796875 L 286.507812 259.71875 C 281.554688 254.765625 274.539062 253.144531 268.222656 254.828125 L 262.839844 249.445312 C 311.75 193.648438 309.597656 108.699219 256.371094 55.476562 C 200.894531 0 110.949219 0 55.476562 55.476562 " fill-opacity="1" fill-rule="nonzero"/></svg>