<svg xmlns="http://www.w3.org/2000/svg" xmlns:xlink="http://www.w3.org/1999/xlink" width="500" zoomAndPan="magnify" viewBox="0 0 375 374.999991" height="500" preserveAspectRatio="xMidYMid meet" version="1.0"><defs><clipPath id="820e2a3b8c"><path d="M 191 180 L 375 180 L 375 195 L 191 195 Z M 191 180 " clip-rule="nonzero"/></clipPath><clipPath id="bdee64ea4c"><path d="M 479.746094 -104.75 L 771.957031 187.460938 L 479.746094 479.675781 L 187.535156 187.460938 Z M 479.746094 -104.75 " clip-rule="nonzero"/></clipPath><clipPath id="dcc9c22fbc"><path d="M 479.746094 -104.75 L 771.957031 187.460938 L 479.746094 479.675781 L 187.535156 187.460938 Z M 479.746094 -104.75 " clip-rule="nonzero"/></clipPath><clipPath id="854bab9615"><path d="M 231 89.917969 L 285 89.917969 L 285 162.667969 L 231 162.667969 Z M 231 89.917969 " clip-rule="nonzero"/></clipPath><clipPath id="be73b9d303"><path d="M 171.523438 171.523438 L 203.773438 171.523438 L 203.773438 203.773438 L 171.523438 203.773438 Z M 171.523438 171.523438 " clip-rule="nonzero"/></clipPath></defs><path fill="#ffffff" d="M 187.5 0 C 84.144531 0 0 84.144531 0 187.5 C 0 290.855469 84.144531 375 187.5 375 C 290.855469 375 375 290.855469 375 187.5 C 375 84.144531 290.855469 0 187.5 0 Z M 187.5 34.089844 C 272.429688 34.089844 340.910156 102.570312 340.910156 187.5 C 340.910156 272.429688 272.429688 340.910156 187.5 340.910156 C 102.570312 340.910156 34.089844 272.429688 34.089844 187.5 C 34.089844 102.570312 102.570312 34.089844 187.5 34.089844 Z M 187.5 34.089844 " fill-opacity="1" fill-rule="nonzero"/><g clip-path="url(#820e2a3b8c)"><g clip-path="url(#bdee64ea4c)"><g clip-path="url(#dcc9c22fbc)"><path fill="#ffffff" d="M 766.132812 182.609375 C 764.890625 181.367188 763.175781 180.597656 761.28125 180.597656 L 742.8125 180.597656 C 739.015625 180.597656 735.949219 183.667969 735.949219 187.460938 C 735.949219 189.355469 736.714844 191.074219 737.957031 192.316406 C 739.199219 193.558594 740.910156 194.328125 742.8125 194.328125 L 761.28125 194.328125 C 765.074219 194.328125 768.144531 191.257812 768.144531 187.460938 C 768.144531 185.566406 767.375 183.851562 766.132812 182.609375 Z M 720.4375 182.609375 C 719.195312 181.367188 717.480469 180.597656 715.582031 180.597656 L 688.355469 180.597656 C 684.558594 180.597656 681.492188 183.667969 681.492188 187.460938 C 681.492188 189.355469 682.257812 191.074219 683.5 192.316406 C 684.746094 193.558594 686.460938 194.328125 688.355469 194.328125 L 715.582031 194.328125 C 719.378906 194.328125 722.449219 191.257812 722.449219 187.460938 C 722.449219 185.566406 721.679688 183.851562 720.4375 182.609375 Z M 665.980469 182.609375 C 664.742188 181.367188 663.027344 180.597656 661.128906 180.597656 L 633.898438 180.597656 C 630.105469 180.597656 627.035156 183.667969 627.035156 187.460938 C 627.035156 189.355469 627.804688 191.074219 629.046875 192.316406 C 630.289062 193.558594 632.007812 194.328125 633.898438 194.328125 L 661.128906 194.328125 C 664.921875 194.328125 667.992188 191.257812 667.992188 187.460938 C 667.992188 185.566406 667.222656 183.851562 665.980469 182.609375 Z M 611.515625 182.597656 C 610.273438 181.359375 608.550781 180.597656 606.652344 180.597656 L 579.425781 180.597656 C 575.628906 180.597656 572.5625 183.667969 572.5625 187.460938 C 572.5625 189.355469 573.328125 191.074219 574.570312 192.316406 C 575.808594 193.554688 577.523438 194.328125 579.425781 194.328125 L 606.652344 194.328125 C 610.449219 194.328125 613.515625 191.257812 613.515625 187.460938 C 613.515625 185.566406 612.757812 183.839844 611.515625 182.597656 Z M 557.070312 182.609375 C 555.828125 181.367188 554.113281 180.597656 552.214844 180.597656 L 524.96875 180.597656 C 521.171875 180.597656 518.105469 183.667969 518.105469 187.460938 C 518.105469 189.355469 518.871094 191.074219 520.113281 192.316406 C 521.355469 193.558594 523.074219 194.328125 524.96875 194.328125 L 552.214844 194.328125 C 556.011719 194.328125 559.078125 191.257812 559.078125 187.460938 C 559.078125 185.566406 558.3125 183.851562 557.070312 182.609375 Z M 502.59375 182.609375 C 501.351562 181.367188 499.640625 180.597656 497.742188 180.597656 L 470.511719 180.597656 C 466.71875 180.597656 463.648438 183.667969 463.648438 187.460938 C 463.648438 189.355469 464.417969 191.074219 465.660156 192.316406 C 466.902344 193.558594 468.613281 194.332031 470.511719 194.328125 L 497.742188 194.328125 C 501.535156 194.328125 504.605469 191.257812 504.605469 187.460938 C 504.605469 185.566406 503.835938 183.851562 502.59375 182.609375 Z M 448.128906 182.597656 C 446.886719 181.359375 445.164062 180.597656 443.265625 180.597656 L 416.039062 180.597656 C 412.242188 180.597656 409.175781 183.667969 409.175781 187.460938 C 409.175781 189.355469 409.941406 191.074219 411.183594 192.316406 C 412.425781 193.558594 414.144531 194.328125 416.039062 194.328125 L 443.265625 194.328125 C 447.0625 194.328125 450.128906 191.257812 450.128906 187.460938 C 450.128906 185.566406 449.371094 183.839844 448.128906 182.597656 Z M 393.683594 182.609375 C 392.441406 181.367188 390.726562 180.597656 388.828125 180.597656 L 361.582031 180.597656 C 357.785156 180.597656 354.71875 183.667969 354.71875 187.460938 C 354.71875 189.355469 355.484375 191.074219 356.726562 192.316406 C 357.96875 193.558594 359.6875 194.328125 361.582031 194.328125 L 388.828125 194.328125 C 392.625 194.328125 395.691406 191.257812 395.691406 187.460938 C 395.691406 185.566406 394.925781 183.851562 393.683594 182.609375 Z M 339.226562 182.609375 C 337.984375 181.367188 336.269531 180.597656 334.371094 180.597656 L 307.144531 180.597656 C 303.347656 180.597656 300.28125 183.667969 300.28125 187.460938 C 300.28125 189.355469 301.046875 191.074219 302.289062 192.316406 C 303.535156 193.558594 305.242188 194.328125 307.144531 194.328125 L 334.371094 194.328125 C 338.167969 194.328125 341.238281 191.257812 341.238281 187.460938 C 341.238281 185.566406 340.46875 183.851562 339.226562 182.609375 Z M 284.75 182.609375 C 283.511719 181.367188 281.796875 180.597656 279.898438 180.597656 L 252.667969 180.597656 C 248.875 180.597656 245.804688 183.667969 245.804688 187.460938 C 245.804688 189.355469 246.574219 191.074219 247.816406 192.316406 C 249.058594 193.558594 250.777344 194.328125 252.667969 194.328125 L 279.898438 194.328125 C 283.695312 194.328125 286.761719 191.257812 286.761719 187.460938 C 286.761719 185.566406 285.992188 183.851562 284.75 182.609375 Z M 230.296875 182.609375 C 229.054688 181.367188 227.339844 180.597656 225.441406 180.597656 L 198.214844 180.597656 C 194.417969 180.597656 191.351562 183.667969 191.351562 187.460938 C 191.351562 189.355469 192.117188 191.074219 193.359375 192.316406 C 194.601562 193.558594 196.320312 194.328125 198.214844 194.328125 L 225.441406 194.328125 C 229.238281 194.328125 232.304688 191.257812 232.304688 187.460938 C 232.304688 185.566406 231.539062 183.851562 230.296875 182.609375 Z M 230.296875 182.609375 " fill-opacity="1" fill-rule="nonzero"/></g></g></g><g clip-path="url(#854bab9615)"><path fill="#ffffff" d="M 258.632812 133.164062 L 241.523438 133.164062 L 241.523438 162.527344 L 231.871094 162.527344 L 231.871094 89.9375 L 255.984375 89.9375 C 264.1875 89.9375 270.5 91.796875 274.917969 95.519531 C 279.335938 99.246094 281.546875 104.660156 281.546875 111.777344 C 281.546875 116.296875 280.316406 120.234375 277.867188 123.59375 C 275.414062 126.949219 272.003906 129.457031 267.636719 131.117188 L 284.742188 161.925781 L 284.742188 162.527344 L 274.4375 162.527344 Z M 241.523438 125.335938 L 256.285156 125.335938 C 261.050781 125.335938 264.84375 124.101562 267.664062 121.636719 C 270.480469 119.171875 271.890625 115.875 271.890625 111.75 C 271.890625 107.257812 270.550781 103.808594 267.863281 101.414062 C 265.175781 99.015625 261.300781 97.796875 256.234375 97.761719 L 241.523438 97.761719 Z M 241.523438 125.335938 " fill-opacity="1" fill-rule="nonzero"/></g><g clip-path="url(#be73b9d303)"><path fill="#ffffff" d="M 187.648438 171.523438 C 178.742188 171.523438 171.523438 178.742188 171.523438 187.648438 C 171.523438 196.554688 178.742188 203.773438 187.648438 203.773438 C 196.554688 203.773438 203.773438 196.554688 203.773438 187.648438 C 203.773438 178.742188 196.554688 171.523438 187.648438 171.523438 " fill-opacity="1" fill-rule="nonzero"/></g></svg>