<svg xmlns="http://www.w3.org/2000/svg" xmlns:xlink="http://www.w3.org/1999/xlink" width="500" zoomAndPan="magnify" viewBox="0 0 375 374.999991" height="500" preserveAspectRatio="xMidYMid meet" version="1.0"><defs><clipPath id="d5a32c9ea2"><path d="M 5 100 L 282 100 L 282 374.824219 L 5 374.824219 Z M 5 100 " clip-rule="nonzero"/></clipPath><clipPath id="d5a99e4b96"><path d="M 284 0 L 375 0 L 375 120.507812 L 284 120.507812 Z M 284 0 " clip-rule="nonzero"/></clipPath></defs><g clip-path="url(#d5a32c9ea2)"><path fill="#ffffff" d="M 182.488281 237.484375 L 273.113281 146.972656 C 283.859375 136.246094 283.859375 118.847656 273.113281 108.113281 C 262.363281 97.386719 244.960938 97.386719 234.214844 108.113281 L 143.589844 198.625 L 52.964844 108.121094 C 42.226562 97.386719 24.800781 97.386719 14.054688 108.121094 C 3.316406 118.847656 3.316406 136.246094 14.054688 146.980469 L 104.679688 237.484375 L 13.835938 328.21875 C 3.097656 338.941406 3.097656 356.34375 13.835938 367.066406 C 19.199219 372.433594 26.25 375.117188 33.285156 375.117188 C 40.316406 375.117188 47.371094 372.433594 52.742188 367.066406 L 143.578125 276.34375 L 234.195312 366.847656 C 239.570312 372.214844 246.609375 374.898438 253.644531 374.898438 C 260.675781 374.898438 267.71875 372.214844 273.09375 366.847656 C 283.839844 356.121094 283.839844 338.722656 273.09375 327.996094 Z M 182.488281 237.484375 " fill-opacity="1" fill-rule="nonzero"/></g><path fill="#ffffff" d="M 329.792969 45.257812 C 329.570312 45.722656 329.503906 45.871094 329.523438 45.839844 L 329.714844 45.4375 Z M 329.792969 45.257812 " fill-opacity="1" fill-rule="nonzero"/><path fill="#ffffff" d="M 329.511719 46.957031 C 329.324219 46.957031 329.148438 46.914062 328.984375 46.828125 C 328.261719 46.441406 328.332031 45.839844 328.550781 45.28125 C 328.617188 45.109375 328.699219 44.9375 328.777344 44.753906 C 328.839844 44.621094 328.925781 44.503906 329.035156 44.40625 C 329.144531 44.304688 329.265625 44.230469 329.40625 44.179688 C 329.542969 44.132812 329.6875 44.109375 329.835938 44.117188 C 329.980469 44.125 330.121094 44.160156 330.253906 44.222656 C 330.386719 44.289062 330.5 44.375 330.597656 44.484375 C 330.695312 44.589844 330.769531 44.714844 330.816406 44.851562 C 330.867188 44.988281 330.890625 45.132812 330.882812 45.277344 C 330.878906 45.421875 330.84375 45.5625 330.785156 45.695312 L 329.78125 45.238281 L 330.773438 45.710938 L 330.746094 45.757812 L 330.59375 46.09375 C 330.59375 46.09375 330.472656 46.339844 330.457031 46.367188 C 330.253906 46.742188 329.941406 46.9375 329.511719 46.957031 Z M 329.792969 45.257812 Z M 329.792969 45.257812 " fill-opacity="1" fill-rule="nonzero"/><path fill="#ffffff" d="M 321.480469 28.542969 C 321.902344 28.699219 322.335938 28.722656 322.773438 28.621094 L 322.695312 28.621094 C 322.289062 28.621094 321.882812 28.597656 321.480469 28.542969 Z M 321.480469 28.542969 " fill-opacity="1" fill-rule="nonzero"/><path fill="#ffffff" d="M 322.164062 29.777344 C 321.695312 29.804688 321.257812 29.699219 320.851562 29.464844 C 320.640625 29.320312 320.496094 29.128906 320.417969 28.886719 C 320.339844 28.644531 320.34375 28.402344 320.433594 28.164062 C 320.519531 27.925781 320.667969 27.738281 320.878906 27.605469 C 321.089844 27.46875 321.320312 27.414062 321.570312 27.4375 C 321.921875 27.476562 322.277344 27.496094 322.628906 27.488281 C 322.734375 27.480469 322.835938 27.492188 322.9375 27.523438 C 323.199219 27.585938 323.414062 27.726562 323.578125 27.941406 C 323.742188 28.15625 323.824219 28.398438 323.816406 28.671875 C 323.820312 28.9375 323.730469 29.171875 323.554688 29.375 C 323.378906 29.578125 323.160156 29.695312 322.894531 29.730469 C 322.652344 29.761719 322.410156 29.777344 322.164062 29.777344 Z M 322.164062 29.777344 " fill-opacity="1" fill-rule="nonzero"/><path fill="#ffffff" d="M 360.171875 91.429688 L 330.925781 92.035156 L 340.871094 77.890625 C 349.058594 66.246094 357.457031 54.355469 358.242188 39.617188 C 359.746094 11.296875 324.84375 -9.222656 301.496094 7.988281 C 289.019531 17.171875 282.445312 33.054688 286.660156 48.300781 C 288.535156 55.066406 296.269531 59.910156 303.179688 57.675781 C 310.085938 55.441406 314.5625 48.40625 312.570312 41.160156 C 312.539062 41.042969 312.453125 40.578125 312.359375 40.101562 C 312.273438 40.40625 312.148438 40.429688 312.207031 39.570312 C 312.207031 39.496094 312.207031 39.417969 312.207031 39.34375 C 312.171875 39.09375 312.097656 38.859375 311.988281 38.632812 C 312.070312 38.671875 312.144531 38.730469 312.199219 38.804688 C 312.199219 38.621094 312.199219 38.4375 312.199219 38.273438 C 312.199219 38.238281 312.199219 38.039062 312.230469 37.816406 C 312.5 36.875 312.699219 35.890625 312.96875 34.953125 C 312.96875 34.929688 312.96875 34.910156 312.96875 34.886719 C 313.527344 34.027344 314.039062 33.148438 314.507812 32.238281 C 314.519531 32.214844 314.53125 32.191406 314.546875 32.167969 C 315.1875 31.523438 315.949219 30.867188 316.558594 30.179688 C 316.765625 30.035156 316.96875 29.882812 317.183594 29.753906 C 317.277344 29.699219 317.824219 29.375 318.363281 29.074219 C 318.917969 29 319.484375 28.730469 320.035156 28.601562 C 320.152344 28.574219 320.269531 28.554688 320.390625 28.542969 L 320.511719 28.542969 C 320.796875 28.542969 321.140625 28.585938 321.492188 28.617188 C 321.324219 28.5 321.582031 28.378906 322.285156 28.570312 L 322.703125 28.675781 C 322.871094 28.671875 323.039062 28.660156 323.203125 28.632812 C 323.042969 28.664062 322.917969 28.675781 322.785156 28.695312 C 323.054688 28.761719 323.3125 28.824219 323.59375 28.898438 C 324.042969 29.023438 325.496094 29.6875 325.527344 29.640625 C 326.09375 29.96875 326.71875 30.339844 326.957031 30.488281 C 327.089844 30.570312 327.378906 30.816406 327.644531 31.015625 C 328.242188 31.585938 328.847656 32.152344 329.433594 32.734375 L 329.570312 32.863281 C 330.039062 33.621094 330.460938 34.398438 330.898438 35.171875 C 330.996094 35.496094 331.105469 35.8125 331.195312 36.136719 C 331.308594 36.558594 331.371094 37.003906 331.488281 37.421875 C 331.488281 38.320312 331.398438 39.492188 331.398438 39.703125 C 331.398438 39.914062 331.398438 40.152344 331.398438 40.332031 C 331.265625 40.863281 331.074219 41.390625 331.023438 41.609375 C 330.742188 42.667969 330.371094 43.726562 330.027344 44.816406 C 329.984375 44.949219 329.898438 45.148438 329.816406 45.347656 L 330.09375 44.769531 C 329.972656 45.019531 329.851562 45.296875 329.734375 45.527344 L 329.542969 45.929688 L 329.355469 46.324219 C 328.121094 48.71875 326.761719 51.039062 325.277344 53.285156 C 322.390625 57.792969 319.226562 62.117188 316.148438 66.488281 L 293.152344 99.226562 C 287.230469 107.644531 295.140625 119.628906 304.738281 119.425781 L 360.171875 118.285156 C 367.195312 118.136719 373.9375 112.210938 373.605469 104.859375 C 373.28125 97.707031 367.695312 91.285156 360.171875 91.429688 Z M 360.171875 91.429688 " fill-opacity="1" fill-rule="nonzero"/><g clip-path="url(#d5a99e4b96)"><path fill="#ffffff" d="M 304.507812 120.550781 C 299.386719 120.550781 294.394531 117.371094 291.738281 112.375 C 289.253906 107.722656 289.445312 102.566406 292.234375 98.613281 L 317.414062 62.816406 C 319.75 59.535156 322.179688 56.132812 324.363281 52.699219 C 325.816406 50.460938 327.140625 48.148438 328.332031 45.757812 L 328.757812 44.875 L 328.757812 44.820312 C 328.824219 44.671875 328.886719 44.515625 328.925781 44.410156 L 329.167969 43.667969 C 329.429688 42.867188 329.699219 42.078125 329.898438 41.265625 C 329.898438 41.164062 329.972656 41 330.039062 40.804688 C 330.101562 40.609375 330.179688 40.355469 330.25 40.109375 L 330.25 39.152344 C 330.25 38.730469 330.308594 38.09375 330.316406 37.496094 C 330.269531 37.300781 330.226562 37.097656 330.183594 36.902344 C 330.144531 36.707031 330.113281 36.53125 330.0625 36.371094 C 330.015625 36.214844 329.953125 35.996094 329.890625 35.8125 L 329.816406 35.570312 L 329.503906 35.039062 C 329.214844 34.507812 328.9375 34.027344 328.632812 33.535156 C 328.105469 33.007812 327.695312 32.628906 327.289062 32.242188 L 326.816406 31.792969 C 326.707031 31.726562 326.601562 31.652344 326.503906 31.566406 L 326.292969 31.40625 C 326.082031 31.269531 325.519531 30.941406 324.984375 30.628906 C 324.726562 30.546875 324.46875 30.453125 324.21875 30.34375 C 323.847656 30.191406 323.433594 30.011719 323.234375 29.957031 L 322.464844 29.761719 L 322.375 29.761719 L 321.941406 29.648438 L 321.894531 29.648438 C 321.710938 29.730469 321.519531 29.761719 321.324219 29.746094 C 320.945312 29.707031 320.660156 29.675781 320.421875 29.671875 C 320.171875 29.71875 319.925781 29.785156 319.6875 29.871094 C 319.371094 29.984375 319.046875 30.078125 318.71875 30.152344 C 318.257812 30.414062 317.824219 30.683594 317.742188 30.71875 C 317.664062 30.757812 317.457031 30.90625 317.316406 31.003906 C 316.964844 31.386719 316.492188 31.832031 316.035156 32.269531 C 315.816406 32.472656 315.605469 32.679688 315.398438 32.878906 C 315.238281 33.164062 315.105469 33.410156 314.980469 33.652344 C 314.660156 34.257812 314.304688 34.847656 313.921875 35.414062 C 313.789062 35.878906 313.6875 36.304688 313.582031 36.734375 C 313.476562 37.160156 313.347656 37.691406 313.214844 38.164062 L 313.214844 38.828125 C 313.21875 38.929688 313.207031 39.027344 313.183594 39.125 C 313.183594 39.125 313.183594 39.125 313.183594 39.15625 C 313.199219 39.246094 313.199219 39.335938 313.183594 39.425781 L 313.183594 39.597656 C 313.25 39.707031 313.296875 39.824219 313.324219 39.953125 L 313.390625 40.339844 C 313.449219 40.628906 313.492188 40.867188 313.511719 40.960938 C 315.589844 48.46875 311.152344 56.316406 303.402344 58.824219 C 301.652344 59.335938 299.875 59.484375 298.066406 59.269531 C 296.257812 59.058594 294.5625 58.5 292.980469 57.59375 C 291.191406 56.65625 289.65625 55.410156 288.378906 53.847656 C 287.097656 52.285156 286.171875 50.535156 285.605469 48.597656 C 281.429688 33.582031 287.554688 16.886719 300.839844 7.113281 C 311.617188 -0.828125 326.203125 -1.519531 338.90625 5.324219 C 352.261719 12.519531 360.082031 25.691406 359.351562 39.699219 C 358.554688 54.699219 350.078125 66.757812 341.882812 78.421875 L 333.109375 90.898438 L 360.15625 90.332031 L 360.433594 90.332031 C 367.976562 90.332031 374.363281 96.773438 374.726562 104.820312 C 374.792969 106.621094 374.503906 108.363281 373.859375 110.042969 C 373.21875 111.726562 372.273438 113.21875 371.023438 114.515625 C 369.613281 116.007812 367.976562 117.175781 366.105469 118.023438 C 364.234375 118.867188 362.273438 119.324219 360.222656 119.390625 L 304.789062 120.550781 Z M 331.101562 45.164062 L 330.746094 45.90625 C 330.640625 46.140625 330.550781 46.332031 330.53125 46.363281 L 330.355469 46.726562 C 329.128906 49.191406 327.761719 51.578125 326.261719 53.886719 C 324.035156 57.367188 321.609375 60.765625 319.257812 64.089844 L 294.039062 99.875 C 291.738281 103.148438 291.605469 107.429688 293.679688 111.328125 C 295.992188 115.667969 300.21875 118.4375 304.699219 118.320312 L 360.132812 117.167969 C 361.882812 117.105469 363.558594 116.710938 365.15625 115.988281 C 366.757812 115.265625 368.15625 114.265625 369.359375 112.988281 C 370.40625 111.914062 371.203125 110.671875 371.746094 109.273438 C 372.289062 107.871094 372.535156 106.417969 372.488281 104.917969 C 372.21875 98.855469 367.46875 92.375 360.199219 92.554688 L 330.949219 93.164062 C 330.503906 93.15625 330.167969 92.960938 329.941406 92.578125 C 329.726562 92.171875 329.75 91.785156 330.015625 91.414062 L 339.960938 77.265625 C 348.070312 65.730469 356.371094 53.9375 357.128906 39.574219 C 357.828125 26.4375 350.441406 14.058594 337.851562 7.285156 C 325.738281 0.75 312.390625 1.359375 302.15625 8.902344 C 289.613281 18.152344 283.816406 33.875 287.734375 48.023438 C 288.234375 49.664062 289.03125 51.144531 290.125 52.460938 C 291.21875 53.78125 292.523438 54.839844 294.039062 55.636719 C 295.378906 56.398438 296.816406 56.863281 298.347656 57.035156 C 299.882812 57.207031 301.386719 57.066406 302.859375 56.617188 C 309.46875 54.5 313.269531 47.816406 311.507812 41.453125 C 311.507812 41.390625 311.453125 41.222656 311.410156 41.003906 C 311.117188 40.527344 311.011719 40.011719 311.105469 39.460938 C 311.085938 39.355469 311.0625 39.25 311.03125 39.148438 C 310.9375 38.984375 310.886719 38.804688 310.886719 38.617188 C 310.875 38.433594 310.90625 38.253906 310.988281 38.089844 C 311.023438 38.007812 311.066406 37.933594 311.121094 37.867188 L 311.121094 37.632812 L 311.511719 36.117188 C 311.632812 35.589844 311.761719 35.09375 311.902344 34.589844 C 311.949219 34.441406 312.011719 34.304688 312.097656 34.175781 C 312.457031 33.648438 312.777344 33.097656 313.0625 32.523438 C 313.226562 32.210938 313.390625 31.910156 313.554688 31.628906 C 313.628906 31.5 313.714844 31.382812 313.820312 31.28125 C 314.027344 31.070312 314.285156 30.820312 314.550781 30.570312 C 314.964844 30.179688 315.386719 29.789062 315.746094 29.375 C 315.808594 29.304688 315.875 29.246094 315.949219 29.195312 C 316.265625 28.972656 316.445312 28.851562 316.625 28.734375 C 316.726562 28.675781 317.289062 28.34375 317.847656 28.035156 C 317.972656 27.964844 318.101562 27.921875 318.242188 27.902344 C 318.507812 27.851562 318.769531 27.78125 319.023438 27.6875 C 319.285156 27.597656 319.554688 27.511719 319.804688 27.449219 C 319.925781 27.449219 320.066406 27.398438 320.210938 27.378906 C 320.292969 27.367188 320.371094 27.367188 320.453125 27.378906 C 320.664062 27.378906 320.867188 27.378906 321.070312 27.414062 C 321.574219 27.265625 322.074219 27.277344 322.570312 27.449219 L 322.824219 27.515625 L 322.964844 27.515625 C 323.378906 27.421875 323.730469 27.53125 324.023438 27.839844 C 324.296875 27.929688 324.742188 28.109375 325.144531 28.273438 C 325.382812 28.375 325.605469 28.46875 325.738281 28.515625 C 325.867188 28.539062 325.988281 28.585938 326.101562 28.648438 C 326.679688 28.988281 327.320312 29.363281 327.570312 29.519531 L 327.945312 29.796875 L 328.898438 30.617188 C 329.347656 31.046875 329.800781 31.472656 330.238281 31.910156 C 330.34375 32.011719 330.441406 32.121094 330.535156 32.238281 C 330.878906 32.800781 331.195312 33.371094 331.519531 33.9375 L 331.878906 34.582031 C 331.921875 34.65625 331.957031 34.730469 331.980469 34.8125 L 332.082031 35.140625 C 332.15625 35.363281 332.222656 35.585938 332.289062 35.804688 C 332.34375 36.027344 332.394531 36.257812 332.441406 36.484375 C 332.488281 36.710938 332.519531 36.886719 332.578125 37.082031 C 332.605469 37.183594 332.621094 37.285156 332.621094 37.390625 C 332.621094 38.039062 332.574219 38.824219 332.546875 39.3125 L 332.519531 40.132812 C 332.519531 40.28125 332.507812 40.429688 332.484375 40.578125 C 332.398438 40.894531 332.292969 41.238281 332.207031 41.503906 L 332.101562 41.847656 C 331.886719 42.710938 331.609375 43.550781 331.328125 44.394531 L 331.210938 44.753906 C 331.210938 44.914062 331.171875 45.066406 331.101562 45.214844 Z M 331.101562 45.164062 " fill-opacity="1" fill-rule="nonzero"/></g><path fill="#ffffff" d="M 312.34375 40.074219 C 312.480469 39.613281 312.429688 39.175781 312.191406 38.761719 C 312.191406 38.945312 312.191406 39.125 312.191406 39.289062 C 312.191406 39.453125 312.296875 39.8125 312.34375 40.074219 Z M 312.34375 40.074219 " fill-opacity="1" fill-rule="nonzero"/><path fill="#ffffff" d="M 312.34375 41.183594 L 312.300781 41.183594 C 312.039062 41.175781 311.8125 41.085938 311.613281 40.917969 C 311.414062 40.746094 311.292969 40.535156 311.242188 40.28125 L 311.097656 39.542969 C 311.085938 39.453125 311.085938 39.363281 311.097656 39.273438 L 311.097656 38.839844 C 311.09375 38.601562 311.160156 38.378906 311.292969 38.179688 C 311.425781 37.980469 311.605469 37.835938 311.828125 37.75 C 312.046875 37.660156 312.269531 37.644531 312.5 37.703125 C 312.726562 37.757812 312.917969 37.878906 313.070312 38.054688 C 313.558594 38.769531 313.683594 39.539062 313.4375 40.371094 C 313.371094 40.613281 313.234375 40.8125 313.03125 40.964844 C 312.824219 41.113281 312.597656 41.1875 312.34375 41.183594 Z M 312.34375 41.183594 " fill-opacity="1" fill-rule="nonzero"/></svg>