<svg xmlns="http://www.w3.org/2000/svg" xmlns:xlink="http://www.w3.org/1999/xlink" width="500" zoomAndPan="magnify" viewBox="0 0 375 374.999991" height="500" preserveAspectRatio="xMidYMid meet" version="1.0"><path fill="#ffffff" d="M 372.394531 20.351562 C 370.683594 16.375 368.285156 12.8125 365.269531 9.730469 C 362.1875 6.644531 358.625 4.25 354.648438 2.605469 C 350.539062 0.890625 346.152344 0 341.632812 0 L 33.367188 0 C 28.847656 0 24.460938 0.890625 20.351562 2.605469 C 16.375 4.316406 12.8125 6.714844 9.730469 9.730469 C 6.644531 12.8125 4.25 16.375 2.605469 20.351562 C 0.890625 24.460938 0 28.847656 0 33.367188 L 0 341.632812 C 0 346.152344 0.890625 350.539062 2.605469 354.648438 C 4.316406 358.625 6.714844 362.1875 9.730469 365.269531 C 12.8125 368.355469 16.375 370.75 20.351562 372.394531 C 24.460938 374.109375 28.847656 375 33.367188 375 L 341.632812 375 C 346.152344 375 350.539062 374.109375 354.648438 372.394531 C 358.625 370.683594 362.1875 368.285156 365.269531 365.269531 C 368.355469 362.1875 370.75 358.625 372.394531 354.648438 C 374.109375 350.539062 375 346.152344 375 341.632812 L 375 33.300781 C 375 28.777344 374.109375 24.460938 372.394531 20.351562 Z M 356.363281 341.5625 C 356.363281 349.648438 349.785156 356.292969 341.632812 356.292969 L 196.851562 356.292969 L 196.851562 196.785156 L 356.363281 196.785156 Z M 18.636719 341.5625 L 18.636719 196.785156 L 178.148438 196.785156 L 178.148438 356.292969 L 33.367188 356.292969 C 25.285156 356.292969 18.636719 349.648438 18.636719 341.5625 Z M 18.636719 33.300781 C 18.636719 25.214844 25.214844 18.570312 33.367188 18.570312 L 178.148438 18.570312 L 178.148438 178.078125 L 18.636719 178.078125 Z M 196.851562 178.078125 L 196.851562 18.570312 L 341.632812 18.570312 C 349.714844 18.570312 356.363281 25.144531 356.363281 33.300781 L 356.363281 178.078125 Z M 196.851562 178.078125 " fill-opacity="1" fill-rule="nonzero"/><path fill="#ffffff" d="M 227.960938 88.457031 L 327.449219 88.457031 L 327.449219 107.09375 L 227.960938 107.09375 Z M 227.960938 88.457031 " fill-opacity="1" fill-rule="nonzero"/><path fill="#ffffff" d="M 220.285156 241.527344 L 319.773438 241.527344 L 319.773438 260.164062 L 220.285156 260.164062 Z M 220.285156 241.527344 " fill-opacity="1" fill-rule="nonzero"/><path fill="#ffffff" d="M 220.285156 295.039062 L 319.773438 295.039062 L 319.773438 313.675781 L 220.285156 313.675781 Z M 220.285156 295.039062 " fill-opacity="1" fill-rule="nonzero"/><path fill="#ffffff" d="M 107.917969 279.28125 L 135.941406 249.335938 L 122.238281 236.59375 L 95.101562 265.644531 L 67.96875 236.59375 L 54.335938 249.335938 L 82.359375 279.28125 L 54.335938 309.292969 L 67.96875 322.035156 L 95.101562 292.984375 L 122.238281 322.035156 L 135.941406 309.292969 Z M 107.917969 279.28125 " fill-opacity="1" fill-rule="nonzero"/><path fill="#ffffff" d="M 104.488281 88.457031 L 104.488281 48.101562 L 85.785156 48.101562 L 85.785156 88.457031 L 45.425781 88.457031 L 45.425781 107.164062 L 85.785156 107.164062 L 85.785156 147.519531 L 104.488281 147.519531 L 104.488281 107.164062 L 144.847656 107.164062 L 144.847656 88.457031 Z M 104.488281 88.457031 " fill-opacity="1" fill-rule="nonzero"/></svg>